<svg xmlns="http://www.w3.org/2000/svg" viewBox="0 0 512 512" width="512" height="512">
  <rect width="512" height="512" rx="115" ry="115" fill="url(#bg)"/>
  <rect width="512" height="512" rx="115" ry="115" fill="url(#glow)" opacity="0.4"/>
  <g transform="translate(256,256)">
    <path d="M0,-140 C-88,-140 -140,-72 -140,20 L-140,80 L140,80 L140,20 C140,-72 88,-140 0,-140 Z"
          fill="white" opacity="0.95"/>
    <rect x="-155" y="80" width="310" height="28" rx="14" fill="white" opacity="0.95"/>
    <circle cx="0" cy="110" r="22" fill="white" opacity="0.85"/>
    <rect x="-18" y="-165" width="36" height="32" rx="12" fill="white" opacity="0.8"/>
    <ellipse cx="-42" cy="-90" rx="18" ry="36" fill="white" opacity="0.25" transform="rotate(-20)"/>
  </g>
  <line x1="82" y1="200" x2="58" y2="168" stroke="white" stroke-width="14" stroke-linecap="round" opacity="0.55"/>
  <line x1="68" y1="256" x2="36" y2="256" stroke="white" stroke-width="14" stroke-linecap="round" opacity="0.4"/>
  <line x1="430" y1="200" x2="454" y2="168" stroke="white" stroke-width="14" stroke-linecap="round" opacity="0.55"/>
  <line x1="444" y1="256" x2="476" y2="256" stroke="white" stroke-width="14" stroke-linecap="round" opacity="0.4"/>
  <defs>
    <linearGradient id="bg" x1="0" y1="0" x2="1" y2="1">
      <stop offset="0%" stop-color="#1e3a8a"/>
      <stop offset="55%" stop-color="#1d4ed8"/>
      <stop offset="100%" stop-color="#2563eb"/>
    </linearGradient>
    <radialGradient id="glow" cx="30%" cy="25%" r="60%">
      <stop offset="0%" stop-color="#60a5fa"/>
      <stop offset="100%" stop-color="#1e3a8a" stop-opacity="0"/>
    </radialGradient>
  </defs>
</svg>
